<svg width="65" height="41" viewBox="0 0 65 41" fill="none" xmlns="http://www.w3.org/2000/svg">
<path d="M48.9699 5.78568C42.8899 9.19568 27.9299 18.8757 20.6699 34.5757C22.7599 34.0257 27.0099 33.1957 30.6499 34.3157C33.9099 35.3157 37.3599 38.4757 38.9599 40.0957C39.8899 26.5457 46.1499 11.7957 48.9599 5.78568H48.9699Z" fill="#231815"/>
<path d="M54.04 1.34567C54.04 1.34567 42.09 -3.09433 26.15 4.15567C11.02 11.0457 0 24.2957 0 24.2957C0 24.2957 7.14 20.6457 13.62 24.1157C17.39 26.1357 18.7 30.5657 19.15 33.0957C28.81 12.9557 50.56 2.67567 50.79 2.56567C50.81 2.56567 50.83 2.56567 50.85 2.55567C50.92 2.52567 50.98 2.51567 51.05 2.50567C51.11 2.50567 51.17 2.48567 51.23 2.48567C51.29 2.48567 51.35 2.50567 51.41 2.51567C51.48 2.52567 51.55 2.54567 51.61 2.57567C51.63 2.57567 51.65 2.57567 51.67 2.59567C51.71 2.61567 51.73 2.64567 51.76 2.67567C51.82 2.71567 51.87 2.75567 51.92 2.80567C51.97 2.85567 52 2.90567 52.04 2.96567C52.06 3.00567 52.1 3.02567 52.11 3.06567C52.11 3.08567 52.11 3.10567 52.12 3.12567C52.14 3.18567 52.16 3.25567 52.17 3.32567C52.18 3.38567 52.19 3.44567 52.19 3.50567C52.19 3.56567 52.17 3.62567 52.16 3.68567C52.15 3.75567 52.13 3.81567 52.1 3.88567C52.1 3.90567 52.1 3.92567 52.08 3.94567C51.98 4.14567 42.17 23.3357 40.96 40.0557C43.88 37.4957 52.53 31.3657 63.77 36.5057C64.91 32.0757 63.41 27.8757 63.41 27.8757C54.79 15.6357 54.04 1.34567 54.04 1.34567Z" fill="#231815"/>
</svg>
